<?xml version="1.0" encoding="UTF-8"?>
<svg id="Capa_1" data-name="Capa 1" xmlns="http://www.w3.org/2000/svg" viewBox="0 0 1051.7 960">
  <defs>
    <style>
      .cls-1 {
        fill: #ff2a00;
      }
    </style>
  </defs>
  <path class="cls-1" d="m525.52,0h1.05C565.92,0,602.4,13.18,631.65,35.27h.16c20.21,15.22,36.98,34.74,48.94,56.96l195.66,340.51,1.18,2.73,149.78,259.88c15.94,26.85,24.32,57.68,24.32,89.17,0,24.68-5.13,48.28-14.36,69.68l.16.69c-7,15.91-16.27,30.47-27.74,43.65-13.02,15.09-28.4,28.04-45.88,38-25.87,15.09-55.32,23.11-85.23,23.43h-2.93c-38,0-74.81-12.33-105.08-35.27h-.16c-20.21-15.22-36.98-34.74-48.94-56.96l-195.66-340.51-1.18-2.73-150.5-261.07c-15.55-26.72-23.63-57.03-23.63-87.99,0-18.5,2.89-36.45,8.25-53.25l.3-1.05.53-1.35c2.23-6.84,5.13-14.72,5.13-14.72,6.84-15.74,16.27-30.27,27.38-43.12l2.76-3.25.66-.69v-.16h.16l.36-.53.36-.13c11.8-13.02,25.87-24.49,41.94-33.76C464.26,8.35,493.71.33,523.62,0h1.91Z"/>
  <path class="cls-1" d="m175.65,960h-2.6c-29.94-.36-59.39-8.38-85.23-23.43-17.49-9.96-32.87-22.91-45.88-38-11.47-13.18-20.74-27.74-27.74-43.65l.16-.69c-9.6-21.92-14.36-45.72-14.36-69.68,0-32.7,8.91-63.14,24.32-89.17l149.78-259.88,1.18-2.73,133.18-231.62c3.25,28.23,11.96,55.97,26.03,81.28l2.53,4.31,147.9,256.6v-.49l2.93,6.31,12.65,22.25-170.35,296.34c-11.96,22.22-28.76,41.77-48.94,56.96h-.16c-30.27,22.97-67.08,35.27-105.08,35.27l-.33.03Z"/>
</svg>