<?xml version="1.0" encoding="UTF-8"?>
<svg id="Capa_1" data-name="Capa 1" xmlns="http://www.w3.org/2000/svg" viewBox="0 0 1051 714.38">
  <defs>
    <style>
      .cls-1 {
        fill: #ff2a00;
      }
    </style>
  </defs>
  <path class="cls-1" d="m112.21,467.53c0-172.05,86.02-351.58,187.01-351.58,56.1,0,100.99,33.66,172.05,134.65-67.32,104.73-108.47,168.31-108.47,168.31-89.77,142.13-119.69,172.05-168.31,172.05-48.62,3.74-82.28-41.14-82.28-123.43m587.21-63.58l-63.58-104.73c-14.96-26.18-33.66-52.36-48.62-74.8,56.1-86.02,100.99-130.91,157.09-130.91,112.21,0,201.97,168.31,201.97,377.76,0,78.54-26.18,123.43-78.54,123.43s-71.06-33.66-168.31-190.75m-160.83-254.33C456.31,41.14,385.24,0,302.96,0,130.91,0,0,228.15,0,467.53c0,149.61,71.06,243.11,190.75,243.11,86.02,0,145.87-41.14,258.07-235.63,0,0,44.88-82.28,78.54-138.39,11.22,18.7,22.44,37.4,33.66,59.84l52.36,89.77c100.99,172.05,157.09,228.15,258.07,228.15,115.95,0,179.53-97.25,179.53-250.59C1047.26,209.45,912.61,0,751.78,0c-86.02,0-153.35,67.32-213.19,149.61"/>
</svg>