<?xml version="1.0" encoding="UTF-8"?>
<svg id="Capa_1" data-name="Capa 1" xmlns="http://www.w3.org/2000/svg" viewBox="0 0 1037.06 1037.11">
  <defs>
    <style>
      .cls-1 {
        fill: #edeceb;
      }
    </style>
  </defs>
  <path class="cls-1" d="m728.1,0h-419.13C138.38.13.13,138.38,0,308.96v419.13c.1,170.6,138.36,308.88,308.96,309.01h419.13c170.59-.16,308.83-138.42,308.96-309.01v-419.13C1036.98,138.36,898.7.08,728.1,0Zm204.69,728.1c-.03,113.03-91.65,204.66-204.69,204.69h-419.13c-113.02,0-204.64-91.62-204.64-204.64v-419.18c-.03-112.99,91.55-204.61,204.55-204.64h419.23c113.01.03,204.61,91.63,204.64,204.64l.05,419.13Z"/>
  <path class="cls-1" d="m518.55,250.41c-147.93,0-268.14,120.26-268.14,268.14s120.26,268.14,268.14,268.14,268.14-120.26,268.14-268.14-120.21-268.14-268.14-268.14Zm0,431.95c-90.47.01-163.83-73.32-163.84-163.79-.01-90.47,73.32-163.83,163.79-163.84,90.47-.01,163.83,73.32,163.84,163.79.01,90.47-73.32,163.83-163.79,163.84Zm268.7-494.23c35.49.03,64.23,28.81,64.21,64.3-.03,35.49-28.81,64.23-64.3,64.21-35.45-.03-64.18-28.76-64.21-64.21,0-35.45,24.04-64.3,64.3-64.3Z"/>
</svg>