<?xml version="1.0" encoding="UTF-8"?>
<svg id="Capa_1" data-name="Capa 1" xmlns="http://www.w3.org/2000/svg" viewBox="0 0 1037.04 1056.02">
  <defs>
    <style>
      .cls-1 {
        fill: #edeceb;
      }
    </style>
  </defs>
  <path class="cls-1" d="m493.89.41c-86.73,5.62-177.8,36.78-249.76,85.45-75.97,51.4-136.2,120.78-175.23,201.73-21.36,44.33-34.69,86.09-43.85,137.49-6.91,38.55-8.35,96.69-3.53,141.34,6.42,60.07,28.43,132.03,58.14,190.81l8.51,16.54-19.76,58.95c-10.92,32.44-30.68,91.55-44.01,131.38-13.49,39.99-24.41,73.72-24.41,75.33,0,1.45,2.09,3.53,4.66,4.5,4.18,1.61,4.66,2.25,3.85,7.23-.96,5.14-.8,5.46,2.89,4.34,6.59-2.09,150.34-47.86,211.05-67.46,31.8-10.12,59.11-18.47,60.71-18.47,1.45,0,8.35,2.73,15.26,6.26,58.78,29.55,121.42,47.22,188.08,53.32,26.34,2.25,79.99,1.12,105.84-2.57,153.23-21.2,283.65-105.84,363.95-235.78,26.18-42.4,51.08-101.51,64.41-152.91,12.69-49.31,18.79-110.5,15.42-157.72-8.67-125.44-57.18-236.59-141.5-323.96C812.87,71.56,708.79,19.2,590.26,3.3c-17.35-2.25-77.42-4.18-96.37-2.89Zm62.8,109.86c57.34,4.66,104.4,17.35,154.03,41.6,67.3,33.09,123.67,82.56,165.43,145.52,32.12,48.34,51.88,100.38,59.59,157.24,3.69,26.98,3.69,81.59,0,109.22-26.18,194.18-186.47,343.88-380.98,356.08-68.58,4.18-132.35-7.07-194.66-34.37-17.19-7.55-45.61-22.97-54.45-29.39-2.73-2.09-6.26-3.85-7.87-3.85-1.45,0-35.66,10.44-75.81,23.29-40.15,12.85-73.24,23.29-73.4,22.97-.32-.32,9.96-31.64,22.65-69.55,12.69-38.07,23.13-70.99,23.13-73.56s-2.89-8.51-7.07-14.46c-67.14-96.21-88.98-229.04-56.38-341.63,7.23-24.41,13.17-39.35,24.9-62.64,32.12-62.8,81.11-117.57,141.34-157.72,75.97-50.75,170.89-75.81,259.55-68.74Z"/>
  <path class="cls-1" d="m344.2,258.68c-3.69,1.12-8.99,3.69-12.05,5.46-8.19,5.14-31.96,30.52-39.35,42.08-23.61,36.78-28.91,85.77-14.78,133.63,10.76,36.14,23.93,63.76,48.02,101.03,30.52,46.9,50.27,72.28,81.91,104.88,47.54,48.99,87.53,76.45,148.89,101.99,45.29,18.95,78.7,29.71,97.49,31.64,13.01,1.28,41.44-3.21,58.14-9.32,23.13-8.35,49.63-26.98,59.91-42.08,10.28-15.42,20.88-50.27,22.16-73.4l.96-15.26-4.98-5.78c-3.53-3.85-17.99-12.53-47.22-28.27-69.39-37.26-78.22-40.8-89.14-35.01-2.73,1.28-13.01,11.72-22.65,22.97-28.59,33.25-34.53,39.03-39.35,39.03-6.1,0-46.1-20.4-64.73-32.93-21.68-14.78-35.82-26.66-53.65-45.13-21.2-22-44.17-53.48-57.02-78.06l-2.89-5.78,11.56-12.69c15.26-16.22,21.52-26.02,27.63-43.04,6.26-17.35,5.94-22.65-3.21-46.58-8.19-21.36-14.78-39.03-26.18-69.71-9.32-25.22-16.22-35.5-25.86-38.55-9.16-2.73-46.1-3.53-53.65-1.12Z"/>
</svg>