<?xml version="1.0" encoding="UTF-8" standalone="no"?>
<!-- Created with Inkscape (http://www.inkscape.org/) -->

<svg
   version="1.1"
   id="svg2"
   width="1440"
   height="1440"
   viewBox="0 0 1440 1440"
   xmlns="http://www.w3.org/2000/svg"
   xmlns:svg="http://www.w3.org/2000/svg">
  <defs
     id="defs6">
    <clipPath
       clipPathUnits="userSpaceOnUse"
       id="clipPath18">
      <path
         d="M 0,1080 H 1080 V 0 H 0 Z"
         id="path16" />
    </clipPath>
  </defs>
  <g
     id="g8"
     transform="matrix(1.3333333,0,0,-1.3333333,0,1440)">
    <path
       d="M 0,0 H 1080 V 1080 H 0 Z"
       style="fill:#ff2a00;fill-opacity:1;fill-rule:nonzero;stroke:none"
       id="path10" />
    <g
       id="g12">
      <g
         id="g14"
         clip-path="url(#clipPath18)">
        <g
           id="g20"
           transform="translate(541.91,569.9212)">
          <path
             d="m 0,0 v -27.94 l -72.37,-9 c -0.69,-0.08 -1.21,0.03 -1.56,0.33 -0.35,0.3 -0.51,0.8 -0.51,1.49 V -6.68 L -95.4,11.67 0,23.53 v 27.94 l 72.01,8.95 c 0.69,0.09 1.21,-0.08 1.55,-0.5 0.35,-0.42 0.52,-0.85 0.52,-1.31 V 30.36 L 95.23,11.84 Z m 0,120.59 v 27.94 l 62.34,7.75 c 0.46,0.06 0.92,-0.06 1.38,-0.34 0.46,-0.3 0.69,-0.78 0.69,-1.48 V 130.5 L 85.35,112.17 0,101.55 V 73.62 l -72.37,-9 c -0.69,-0.09 -1.21,0.01 -1.56,0.32 -0.35,0.3 -0.51,0.68 -0.51,1.15 V 90.38 L -95.4,108.73 Z M 121.06,84.31 c -2.31,5.35 -5.3,10.23 -8.98,14.6 0.91,2.64 1.61,5.32 2.07,8.03 0.45,2.7 0.69,5.55 0.69,8.55 v 47.67 c 0,9.2 -2.31,17.27 -6.91,24.18 -4.61,6.91 -10.65,12.15 -18.13,15.71 -7.49,3.56 -15.72,4.77 -24.7,3.66 L 0,198.61 V 170.68 L -124.18,155.23 V -93.46 L 0,-78.02 v 27.93 l 74.43,9.26 c 9.21,1.15 17.55,4.43 25.04,9.85 7.48,5.42 13.52,12.16 18.13,20.22 4.61,8.05 6.91,16.68 6.91,25.9 v 52.5 c 0,5.75 -1.15,11.31 -3.45,16.67"
             style="fill:#edeceb;fill-opacity:1;fill-rule:nonzero;stroke:none"
             id="path22" />
        </g>
        <g
           id="g24"
           transform="translate(297.7058,331.1013)">
          <path
             d="m 0,0 c -0.39,0 -0.679,0.098 -0.876,0.292 -0.193,0.193 -0.288,0.485 -0.288,0.872 v 15.973 l -11.768,11.771 h 94.024 c 0.387,0 0.679,-0.133 0.872,-0.391 0.197,-0.258 0.292,-0.516 0.292,-0.773 V 11.876 L 94.132,0 Z m 75.662,83.421 c 0.258,0 0.515,-0.095 0.773,-0.289 0.258,-0.197 0.391,-0.485 0.391,-0.876 V 68.799 L 88.586,57.038 H 0 c -0.39,0 -0.679,0.095 -0.876,0.292 -0.193,0.193 -0.288,0.418 -0.288,0.679 v 13.644 l -11.768,11.768 z m 32.98,-44.524 c -1.296,3.17 -2.976,6.112 -5.043,8.828 0.512,1.422 0.902,2.878 1.16,4.365 0.258,1.486 0.391,3.071 0.391,4.755 v 26.772 c 0,5.17 -1.297,9.86 -3.88,14.066 -2.589,4.198 -5.984,7.565 -10.186,10.087 -4.205,2.522 -8.828,3.781 -13.871,3.781 H -29.101 V -28.13 H 82.45 c 5.172,0 9.863,1.262 14.065,3.784 4.202,2.522 7.596,5.882 10.186,10.087 2.586,4.202 3.879,8.89 3.879,14.066 v 29.488 c 0,3.231 -0.648,6.431 -1.938,9.602"
             style="fill:#edeceb;fill-opacity:1;fill-rule:nonzero;stroke:none"
             id="path26" />
        </g>
        <g
           id="g28"
           transform="translate(448.7778,330.5209)">
          <path
             d="M 0,0 C -0.261,0 -0.519,0.126 -0.777,0.387 -1.035,0.645 -1.164,0.903 -1.164,1.164 V 6.289 L -12.915,18.04 H 57.812 V 11.683 L 69.495,0 Z m 81.676,71.198 c -2.457,4.138 -5.756,7.471 -9.894,9.993 -4.141,2.521 -8.73,3.781 -13.773,3.781 h -86.72 V 57.425 h 85.359 c 0.258,0 0.516,-0.132 0.777,-0.39 0.258,-0.262 0.387,-0.516 0.387,-0.774 V 42.681 H -28.711 V -0.197 c 0,-4.915 1.225,-9.442 3.686,-13.58 2.454,-4.141 5.784,-7.467 9.989,-9.989 4.202,-2.521 8.76,-3.784 13.678,-3.784 h 86.72 v 85.168 c 0,4.912 -1.232,9.44 -3.686,13.58"
             style="fill:#edeceb;fill-opacity:1;fill-rule:nonzero;stroke:none"
             id="path30" />
        </g>
        <g
           id="g32"
           transform="translate(699.3281,415.4926)">
          <path
             d="m 0,0 v -100.754 l -11.767,-11.768 H -27.55 V -11.71 L -15.84,0 Z"
             style="fill:#edeceb;fill-opacity:1;fill-rule:nonzero;stroke:none"
             id="path34" />
        </g>
        <g
           id="g36"
           transform="translate(811.3954,406.9565)">
          <path
             d="M 0,0 -43.261,-47.725 0,-95.449 v -8.537 h -28.517 l -38.995,42.294 h -17.066 l 11.889,-11.889 v -30.405 h -27.546 l 0.678,139.862 h 27.547 l -0.563,-57.626 -12.005,-12.005 h 17.066 L -28.517,8.536 H 0 Z"
             style="fill:#edeceb;fill-opacity:1;fill-rule:nonzero;stroke:none"
             id="path38" />
        </g>
        <g
           id="g40"
           transform="translate(632.7117,383.4114)">
          <path
             d="m 0,0 v 3.696 c 0,0.258 -0.132,0.516 -0.39,0.781 -0.262,0.258 -0.52,0.387 -0.778,0.387 h -69.783 l 11.849,-14.106 c 0.061,-0.143 0.17,-0.272 0.33,-0.39 0.257,-0.197 0.519,-0.292 0.78,-0.292 H 0.193 c 5.061,0 9.664,-1.266 13.818,-3.795 4.151,-2.532 7.491,-5.872 10.023,-10.023 2.528,-4.154 3.794,-8.757 3.794,-13.817 v -15.376 c 0,-4.931 -1.266,-9.469 -3.794,-13.62 -2.532,-4.155 -5.872,-7.494 -10.023,-10.023 -4.154,-2.529 -8.757,-3.795 -13.818,-3.795 h -59.549 c -4.932,0 -9.47,1.266 -13.621,3.795 -4.154,2.529 -7.494,5.868 -10.023,10.023 -2.528,4.151 -3.794,8.689 -3.794,13.62 v 5.061 h 27.635 v -3.696 c 0,-0.262 0.125,-0.523 0.387,-0.781 0.257,-0.261 0.519,-0.387 0.78,-0.387 h 69.746 l -11.808,14.093 -0.004,0.006 c -0.061,0.146 -0.173,0.279 -0.332,0.398 -0.262,0.193 -0.52,0.291 -0.778,0.291 h -58.188 c -4.932,0 -9.47,1.266 -13.621,3.795 -4.154,2.532 -7.494,5.868 -10.023,10.023 -2.528,4.151 -3.794,8.757 -3.794,13.817 V 5.061 c 0,4.928 1.266,9.466 3.794,13.62 2.529,4.151 5.869,7.491 10.023,10.023 4.151,2.529 8.689,3.795 13.621,3.795 H 0.193 c 5.061,0 9.664,-1.266 13.818,-3.795 4.151,-2.532 7.491,-5.872 10.023,-10.023 2.528,-4.154 3.794,-8.692 3.794,-13.62 l 0,-5.061 z"
             style="fill:#edeceb;fill-opacity:1;fill-rule:nonzero;stroke:none"
             id="path42" />
        </g>
      </g>
    </g>
  </g>
</svg>
