<?xml version="1.0" encoding="UTF-8" standalone="no"?>
<!-- Created with Inkscape (http://www.inkscape.org/) -->

<svg
   version="1.1"
   id="svg2"
   width="1440"
   height="1440"
   viewBox="0 0 1440 1440"
   xmlns="http://www.w3.org/2000/svg"
   xmlns:svg="http://www.w3.org/2000/svg">
  <defs
     id="defs6">
    <clipPath
       clipPathUnits="userSpaceOnUse"
       id="clipPath18">
      <path
         d="M 0,1080 H 1080 V 0 H 0 Z"
         id="path16" />
    </clipPath>
  </defs>
  <g
     id="g8"
     transform="matrix(1.3333333,0,0,-1.3333333,0,1440)">
    <path
       d="M 0,0 H 1080 V 1080 H 0 Z"
       style="fill:#edeceb;fill-opacity:1;fill-rule:nonzero;stroke:none"
       id="path10" />
    <g
       id="g12">
      <g
         id="g14"
         clip-path="url(#clipPath18)">
        <g
           id="g20"
           transform="translate(442.6598,440.3404)">
          <path
             d="m 0,0 c -0.933,0 -1.622,0.235 -2.092,0.698 -0.463,0.462 -0.69,1.159 -0.69,2.084 V 40.946 L -30.898,69.07 h 224.654 c 0.924,0 1.622,-0.316 2.084,-0.933 0.47,-0.616 0.697,-1.232 0.697,-1.849 V 28.376 L 224.913,0 Z m 180.78,199.319 c 0.617,0 1.233,-0.227 1.849,-0.689 0.617,-0.471 0.933,-1.16 0.933,-2.092 v -32.155 l 28.1,-28.1 H 0 c -0.933,0 -1.622,0.227 -2.092,0.697 -0.463,0.462 -0.69,0.998 -0.69,1.622 v 32.601 l -28.116,28.116 z M 259.582,92.937 c -3.098,7.574 -7.112,14.605 -12.051,21.093 1.224,3.398 2.157,6.877 2.773,10.429 0.617,3.552 0.933,7.339 0.933,11.361 v 63.97 c 0,12.35 -3.098,23.558 -9.269,33.606 -6.188,10.032 -14.298,18.076 -24.337,24.102 -10.048,6.025 -21.094,9.034 -33.145,9.034 H -69.532 V -67.213 H 197 c 12.359,0 23.566,3.017 33.606,9.042 10.04,6.026 18.149,14.055 24.337,24.103 6.18,10.039 9.269,21.239 9.269,33.606 v 70.456 c 0,7.721 -1.549,15.368 -4.63,22.943"
             style="fill:#191919;fill-opacity:1;fill-rule:nonzero;stroke:none"
             id="path22" />
        </g>
      </g>
    </g>
  </g>
</svg>
