<?xml version="1.0" encoding="UTF-8" standalone="no"?>
<!-- Created with Inkscape (http://www.inkscape.org/) -->

<svg
   version="1.1"
   id="svg2"
   width="1440"
   height="1440"
   viewBox="0 0 1440 1440"
   xmlns="http://www.w3.org/2000/svg"
   xmlns:svg="http://www.w3.org/2000/svg">
  <defs
     id="defs6">
    <clipPath
       clipPathUnits="userSpaceOnUse"
       id="clipPath18">
      <path
         d="M 0,1080 H 1080 V 0 H 0 Z"
         id="path16" />
    </clipPath>
  </defs>
  <g
     id="g8"
     transform="matrix(1.3333333,0,0,-1.3333333,0,1440)">
    <path
       d="M 0,0 H 1080 V 1080 H 0 Z"
       style="fill:#a01708;fill-opacity:1;fill-rule:nonzero;stroke:none"
       id="path10" />
    <g
       id="g12">
      <g
         id="g14"
         clip-path="url(#clipPath18)">
        <g
           id="g20"
           transform="translate(539.7846,464.0017)">
          <path
             d="M 0,0 V -37.363 L -96.795,-49.4 c -0.931,-0.118 -1.62,0.031 -2.085,0.437 -0.465,0.404 -0.693,1.065 -0.693,1.989 V -8.936 L -127.597,15.608 0,31.477 v 37.36 l 96.302,11.978 c 0.924,0.118 1.62,-0.117 2.078,-0.668 0.472,-0.562 0.7,-1.144 0.7,-1.758 V 40.602 l 28.275,-24.763 z m 0,161.286 v 37.363 l 83.376,10.37 c 0.613,0.076 1.223,-0.076 1.837,-0.459 0.617,-0.396 0.93,-1.044 0.93,-1.974 V 174.54 L 114.146,150.017 0,135.826 V 98.463 L -96.795,86.426 c -0.931,-0.117 -1.62,0.021 -2.085,0.43 -0.465,0.404 -0.693,0.91 -0.693,1.531 v 32.497 l -28.024,24.536 z m 161.91,-48.528 c -3.091,7.164 -7.092,13.681 -12.013,19.532 1.223,3.536 2.154,7.117 2.767,10.735 0.61,3.615 0.93,7.43 0.93,11.438 v 63.76 c 0,12.306 -3.087,23.093 -9.242,32.335 -6.165,9.24 -14.247,16.245 -24.251,21.011 -10.014,4.76 -21.021,6.386 -33.034,4.894 L 0,265.635 V 228.276 L -166.094,207.613 V -125.002 L 0,-104.349 v 37.36 l 99.538,12.382 c 12.32,1.533 23.482,5.927 33.493,13.174 10.008,7.254 18.089,16.259 24.258,27.038 6.158,10.777 9.235,22.318 9.235,34.645 v 70.218 c 0,7.692 -1.547,15.125 -4.614,22.29"
             style="fill:#ff2a00;fill-opacity:1;fill-rule:nonzero;stroke:none"
             id="path22" />
        </g>
      </g>
    </g>
  </g>
</svg>
