<?xml version="1.0" encoding="UTF-8" standalone="no"?>
<!-- Created with Inkscape (http://www.inkscape.org/) -->

<svg
   version="1.1"
   id="svg2"
   width="1440"
   height="1440"
   viewBox="0 0 1440 1440"
   xmlns="http://www.w3.org/2000/svg"
   xmlns:svg="http://www.w3.org/2000/svg">
  <defs
     id="defs6">
    <clipPath
       clipPathUnits="userSpaceOnUse"
       id="clipPath18">
      <path
         d="M 0,1080 H 1080 V 0 H 0 Z"
         id="path16" />
    </clipPath>
  </defs>
  <g
     id="g8"
     transform="matrix(1.3333333,0,0,-1.3333333,0,1440)">
    <path
       d="M 0,0 H 1080 V 1080 H 0 Z"
       style="fill:#ff2a00;fill-opacity:1;fill-rule:nonzero;stroke:none"
       id="path10" />
    <g
       id="g12">
      <g
         id="g14"
         clip-path="url(#clipPath18)">
        <g
           id="g20"
           transform="translate(236.2221,484.2626)">
          <path
             d="m 0,0 v -27.4 l -70.99,-8.83 c -0.68,-0.09 -1.19,0.02 -1.53,0.32 -0.34,0.3 -0.51,0.78 -0.51,1.46 v 27.9 l -20.55,18 L 0,23.09 v 27.4 l 70.63,8.78 c 0.67,0.09 1.19,-0.08 1.52,-0.49 0.35,-0.41 0.51,-0.84 0.51,-1.29 V 29.78 L 93.4,11.62 Z m 0,118.29 v 27.4 l 61.15,7.61 c 0.45,0.05 0.89,-0.06 1.34,-0.34 0.46,-0.29 0.69,-0.77 0.69,-1.45 v -23.5 L 83.71,110.03 0,99.62 v -27.4 l -70.99,-8.83 c -0.68,-0.09 -1.19,0.01 -1.53,0.31 -0.34,0.3 -0.51,0.67 -0.51,1.12 v 23.84 l -20.55,17.99 z M 118.74,82.7 c -2.26,5.25 -5.2,10.03 -8.81,14.32 0.9,2.6 1.58,5.22 2.03,7.88 0.45,2.65 0.69,5.45 0.69,8.39 v 46.76 c 0,9.02 -2.27,16.93 -6.78,23.71 -4.53,6.78 -10.45,11.92 -17.79,15.41 -7.34,3.49 -15.42,4.69 -24.23,3.59 L 0,194.82 v -27.4 L -121.82,152.27 V -91.68 L 0,-76.53 v 27.4 l 73,9.08 c 9.04,1.13 17.22,4.35 24.56,9.66 7.34,5.32 13.27,11.93 17.79,19.84 4.52,7.9 6.78,16.36 6.78,25.4 v 51.5 c 0,5.64 -1.13,11.09 -3.39,16.35"
             style="fill:#edeceb;fill-opacity:1;fill-rule:nonzero;stroke:none"
             id="path22" />
        </g>
        <g
           id="g24"
           transform="translate(581.742,589.4476)">
          <path
             d="M 0,0 H 11.625"
             style="fill:#edeceb;fill-opacity:1;fill-rule:nonzero;stroke:none"
             id="path26" />
        </g>
        <g
           id="g28"
           transform="translate(461.7173,506.6677)">
          <path
             d="m 0,0 c -0.383,0 -0.666,0.097 -0.859,0.286 -0.19,0.19 -0.283,0.476 -0.283,0.856 V 16.81 l -11.543,11.546 h 92.229 c 0.379,0 0.666,-0.13 0.855,-0.383 0.193,-0.253 0.287,-0.506 0.287,-0.759 V 11.649 L 92.335,0 Z m 74.217,81.828 c 0.253,0 0.506,-0.094 0.759,-0.283 0.253,-0.193 0.383,-0.476 0.383,-0.859 V 67.485 L 86.895,55.949 H 0 c -0.383,0 -0.666,0.093 -0.859,0.286 -0.19,0.19 -0.283,0.41 -0.283,0.666 v 13.384 l -11.543,11.543 z m 32.351,-43.674 c -1.272,3.109 -2.92,5.996 -4.948,8.659 0.503,1.395 0.886,2.824 1.139,4.282 0.253,1.458 0.383,3.013 0.383,4.664 v 26.262 c 0,5.07 -1.272,9.671 -3.806,13.796 -2.54,4.119 -5.869,7.421 -9.991,9.895 -4.125,2.474 -8.659,3.709 -13.607,3.709 H -28.545 V -27.593 h 109.42 c 5.074,0 9.675,1.238 13.797,3.712 4.122,2.474 7.451,5.77 9.991,9.895 2.537,4.121 3.806,8.719 3.806,13.796 v 28.925 c 0,3.17 -0.636,6.309 -1.901,9.419"
             style="fill:#edeceb;fill-opacity:1;fill-rule:nonzero;stroke:none"
             id="path30" />
        </g>
        <g
           id="g32"
           transform="translate(609.9046,506.0984)">
          <path
             d="m 0,0 c -0.256,0 -0.509,0.123 -0.762,0.38 -0.253,0.253 -0.38,0.506 -0.38,0.762 V 6.169 L -12.668,17.695 H 56.708 V 11.459 L 68.167,0 Z m 80.116,69.839 c -2.41,4.058 -5.646,7.328 -9.705,9.801 -4.061,2.474 -8.563,3.709 -13.51,3.709 H -28.163 V 56.328 h 83.729 c 0.253,0 0.506,-0.129 0.762,-0.382 0.254,-0.257 0.38,-0.506 0.38,-0.759 V 41.866 H -28.163 V -0.193 c 0,-4.821 1.202,-9.262 3.616,-13.321 2.407,-4.061 5.673,-7.324 9.798,-9.798 4.122,-2.473 8.593,-3.712 13.417,-3.712 h 85.064 v 83.542 c 0,4.818 -1.209,9.259 -3.616,13.321"
             style="fill:#edeceb;fill-opacity:1;fill-rule:nonzero;stroke:none"
             id="path34" />
        </g>
        <g
           id="g36"
           transform="translate(855.6705,589.4476)">
          <path
             d="m 0,0 v -98.83 l -11.543,-11.543 h -15.481 v 98.887 L -15.538,0 Z"
             style="fill:#edeceb;fill-opacity:1;fill-rule:nonzero;stroke:none"
             id="path38" />
        </g>
        <g
           id="g40"
           transform="translate(965.5978,581.0744)">
          <path
             d="M 0,0 -42.435,-46.813 0,-93.627 V -102 h -27.973 l -38.25,41.487 h -16.74 l 11.662,-11.663 V -102 h -27.02 l 0.665,137.191 h 27.021 l -0.553,-56.525 -11.775,-11.776 h 16.74 l 38.25,41.483 27.973,0 z"
             style="fill:#edeceb;fill-opacity:1;fill-rule:nonzero;stroke:none"
             id="path42" />
        </g>
        <g
           id="g44"
           transform="translate(790.3262,557.979)">
          <path
             d="m 0,0 v 3.626 c 0,0.253 -0.13,0.506 -0.383,0.765 -0.256,0.253 -0.509,0.38 -0.762,0.38 h -68.451 l 11.623,-13.837 c 0.06,-0.14 0.166,-0.266 0.323,-0.383 0.253,-0.193 0.509,-0.286 0.765,-0.286 H 0.19 c 4.964,0 9.478,-1.242 13.553,-3.722 4.072,-2.484 7.348,-5.76 9.832,-9.831 2.48,-4.076 3.722,-8.59 3.722,-13.554 v -15.082 c 0,-4.837 -1.242,-9.289 -3.722,-13.36 -2.484,-4.075 -5.76,-7.351 -9.832,-9.832 -4.075,-2.48 -8.589,-3.722 -13.553,-3.722 h -58.413 c -4.837,0 -9.289,1.242 -13.36,3.722 -4.075,2.481 -7.351,5.757 -9.832,9.832 -2.48,4.071 -3.722,8.523 -3.722,13.36 v 4.964 h 27.107 v -3.625 c 0,-0.257 0.123,-0.513 0.38,-0.766 0.253,-0.257 0.509,-0.38 0.765,-0.38 h 68.414 l -11.582,13.824 -0.004,0.006 c -0.06,0.143 -0.169,0.273 -0.326,0.39 -0.256,0.189 -0.509,0.286 -0.762,0.286 h -57.078 c -4.837,0 -9.289,1.242 -13.36,3.722 -4.075,2.484 -7.351,5.757 -9.832,9.832 -2.48,4.071 -3.722,8.589 -3.722,13.553 V 4.964 c 0,4.834 1.242,9.285 3.722,13.361 2.481,4.071 5.757,7.347 9.832,9.831 4.071,2.48 8.523,3.722 13.36,3.722 H 0.19 c 4.964,0 9.478,-1.242 13.553,-3.722 4.072,-2.484 7.348,-5.76 9.832,-9.831 2.48,-4.076 3.722,-8.527 3.722,-13.361 V 0 Z"
             style="fill:#edeceb;fill-opacity:1;fill-rule:nonzero;stroke:none"
             id="path46" />
        </g>
      </g>
    </g>
  </g>
</svg>
