<?xml version="1.0" encoding="UTF-8" standalone="no"?>
<!-- Created with Inkscape (http://www.inkscape.org/) -->

<svg
   version="1.1"
   id="svg2"
   width="1440"
   height="1440"
   viewBox="0 0 1440 1440"
   xmlns="http://www.w3.org/2000/svg"
   xmlns:svg="http://www.w3.org/2000/svg">
  <defs
     id="defs6">
    <clipPath
       clipPathUnits="userSpaceOnUse"
       id="clipPath22">
      <path
         d="M 0,1080 H 1080 V 0 H 0 Z"
         id="path20" />
    </clipPath>
  </defs>
  <g
     id="g8"
     transform="matrix(1.3333333,0,0,-1.3333333,0,1440)">
    <path
       d="M 0,0 H 1080 V 1080 H 0 Z"
       style="fill:#191919;fill-opacity:1;fill-rule:nonzero;stroke:none"
       id="path10" />
    <g
       id="g12"
       transform="translate(374.1687,598.8906)">
      <path
         d="M 0,0 H 16.387 Z"
         style="fill:#edeceb;fill-opacity:1;fill-rule:nonzero;stroke:none"
         id="path14" />
    </g>
    <g
       id="g16">
      <g
         id="g18"
         clip-path="url(#clipPath22)">
        <g
           id="g24"
           transform="translate(204.9791,482.2026)">
          <path
             d="M 0,0 C -0.54,0 -0.939,0.136 -1.211,0.404 -1.478,0.671 -1.61,1.075 -1.61,1.61 v 22.085 l -16.271,16.276 h 130.007 c 0.535,0 0.939,-0.183 1.207,-0.54 0.272,-0.357 0.403,-0.713 0.403,-1.07 V 16.421 L 130.157,0 Z m 104.617,115.346 c 0.357,0 0.714,-0.132 1.071,-0.399 0.356,-0.272 0.539,-0.671 0.539,-1.211 V 95.128 L 122.489,78.867 H 0 c -0.54,0 -0.939,0.131 -1.211,0.403 -0.267,0.268 -0.399,0.578 -0.399,0.939 v 18.866 l -16.271,16.271 z M 150.22,53.782 c -1.793,4.384 -4.116,8.453 -6.974,12.207 0.709,1.966 1.248,3.98 1.605,6.035 0.357,2.056 0.54,4.247 0.54,6.575 v 37.019 c 0,7.148 -1.793,13.633 -5.364,19.448 -3.581,5.805 -8.274,10.461 -14.084,13.948 -5.815,3.487 -12.207,5.228 -19.181,5.228 h -147 V -38.896 h 154.242 c 7.152,0 13.638,1.746 19.448,5.233 5.81,3.487 10.503,8.133 14.084,13.948 3.576,5.81 5.364,12.291 5.364,19.448 v 40.773 c 0,4.468 -0.897,8.893 -2.68,13.276"
             style="fill:#edeceb;fill-opacity:1;fill-rule:nonzero;stroke:none"
             id="path26" />
        </g>
        <g
           id="g28"
           transform="translate(413.8669,481.4001)">
          <path
             d="M 0,0 C -0.361,0 -0.718,0.174 -1.075,0.535 -1.431,0.892 -1.61,1.248 -1.61,1.61 V 8.696 L -17.857,24.944 H 79.937 V 16.153 L 96.09,0 Z m 112.934,98.446 c -3.398,5.721 -7.96,10.33 -13.681,13.817 -5.725,3.487 -12.07,5.228 -19.044,5.228 H -39.699 V 79.402 H 78.327 c 0.357,0 0.713,-0.183 1.075,-0.54 0.356,-0.361 0.535,-0.713 0.535,-1.07 V 59.015 H -39.699 V -0.272 c 0,-6.796 1.695,-13.056 5.097,-18.777 3.393,-5.726 7.997,-10.325 13.812,-13.812 5.81,-3.487 12.113,-5.232 18.913,-5.232 H 118.03 V 79.669 c 0,6.791 -1.703,13.052 -5.096,18.777"
             style="fill:#edeceb;fill-opacity:1;fill-rule:nonzero;stroke:none"
             id="path30" />
        </g>
        <g
           id="g32"
           transform="translate(760.3033,598.8907)">
          <path
             d="m 0,0 v -139.313 l -16.271,-16.271 H -38.094 V -16.191 L -21.902,0 Z"
             style="fill:#edeceb;fill-opacity:1;fill-rule:nonzero;stroke:none"
             id="path34" />
        </g>
        <g
           id="g36"
           transform="translate(915.2592,587.0878)">
          <path
             d="M 0,0 -59.818,-65.989 0,-131.978 v -11.803 h -39.431 l -53.919,58.48 h -23.597 l 16.44,-16.44 v -42.04 h -38.089 l 0.939,193.387 h 38.089 l -0.779,-79.679 -16.6,-16.599 h 23.597 l 53.919,58.475 39.431,0 z"
             style="fill:#edeceb;fill-opacity:1;fill-rule:nonzero;stroke:none"
             id="path38" />
        </g>
        <g
           id="g40"
           transform="translate(668.1928,554.532)">
          <path
             d="M 0,0 V 5.111 C 0,5.467 -0.183,5.824 -0.54,6.19 -0.901,6.547 -1.258,6.725 -1.614,6.725 h -96.49 l 16.384,-19.504 c 0.084,-0.197 0.234,-0.376 0.455,-0.54 0.357,-0.272 0.718,-0.403 1.079,-0.403 H 0.267 c 6.998,0 13.362,-1.751 19.106,-5.247 5.739,-3.501 10.357,-8.119 13.859,-13.859 3.496,-5.744 5.246,-12.108 5.246,-19.105 v -21.26 c 0,-6.819 -1.75,-13.094 -5.246,-18.833 -3.502,-5.744 -8.12,-10.362 -13.859,-13.859 -5.744,-3.496 -12.108,-5.247 -19.106,-5.247 h -82.339 c -6.819,0 -13.094,1.751 -18.833,5.247 -5.745,3.497 -10.363,8.115 -13.859,13.859 -3.496,5.739 -5.247,12.014 -5.247,18.833 v 6.997 H -81.8 v -5.11 c 0,-0.362 0.174,-0.723 0.535,-1.08 0.357,-0.361 0.718,-0.535 1.079,-0.535 h 96.438 l -16.327,19.486 -0.005,0.009 c -0.084,0.202 -0.239,0.385 -0.46,0.549 -0.361,0.268 -0.718,0.404 -1.074,0.404 h -80.458 c -6.819,0 -13.094,1.75 -18.833,5.247 -5.745,3.501 -10.363,8.114 -13.859,13.858 -3.496,5.74 -5.247,12.108 -5.247,19.106 V 6.997 c 0,6.815 1.751,13.089 5.247,18.834 3.496,5.739 8.114,10.357 13.859,13.858 5.739,3.496 12.014,5.247 18.833,5.247 H 0.267 c 6.998,0 13.362,-1.751 19.106,-5.247 C 25.112,36.188 29.73,31.57 33.232,25.831 36.728,20.086 38.478,13.812 38.478,6.997 V 0 Z"
             style="fill:#edeceb;fill-opacity:1;fill-rule:nonzero;stroke:none"
             id="path42" />
        </g>
      </g>
    </g>
  </g>
</svg>
