<?xml version="1.0" encoding="UTF-8"?>
<svg id="Capa_1" data-name="Capa 1" xmlns="http://www.w3.org/2000/svg" viewBox="0 0 1039 1039">
  <defs>
    <style>
      .cls-1 {
        fill: #ff2a00;
      }
    </style>
  </defs>
  <path class="cls-1" d="m1024.58,540.43c-9.64-23.58-22.14-45.47-37.52-65.67,3.81-10.58,6.72-21.41,8.63-32.47,1.92-11.06,2.9-22.85,2.9-35.37v-199.15c0-38.45-9.64-73.34-28.86-104.62-19.26-31.23-44.51-56.27-75.77-75.03-31.28-18.76-65.67-28.13-103.18-28.13H0v1039h829.76c38.48,0,73.37-9.39,104.62-28.15,31.26-18.76,56.5-43.75,75.77-75.03,19.24-31.26,28.86-66.12,28.86-104.62v-219.34c0-24.03-4.82-47.84-14.42-71.42Zm-245.32-331.19c1.92,0,3.84.71,5.76,2.15,1.92,1.46,2.9,3.61,2.9,6.51v100.1l87.48,87.48H216.46c-2.9,0-5.05-.71-6.51-2.17-1.44-1.44-2.15-3.11-2.15-5.05v-101.49l-87.53-87.53h658.99ZM216.46,829.76c-2.9,0-5.05-.73-6.51-2.17-1.44-1.44-2.15-3.61-2.15-6.49v-118.81l-87.53-87.56h699.38c2.88,0,5.05.98,6.49,2.9,1.46,1.92,2.17,3.84,2.17,5.76v118.03l88.34,88.34H216.46Z"/>
</svg>