<?xml version="1.0" encoding="UTF-8"?>
<svg id="Capa_1" data-name="Capa 1" xmlns="http://www.w3.org/2000/svg" viewBox="0 0 886.51 1071.48">
  <defs>
    <style>
      .cls-1 {
        fill: #ff2a00;
      }
    </style>
  </defs>
  <path class="cls-1" d="m874.23,437.74c-8.26-19.11-18.89-36.47-32.02-52.03,3.28-9.42,5.72-19,7.36-28.63,1.64-9.63,2.49-19.79,2.49-30.49v-169.95c0-32.81-8.2-61.55-24.61-86.16-16.46-24.61-38-43.29-64.62-56-26.73-12.7-56.05-17.04-88.07-13.07l-232.08,28.84v99.61L0,184.92v886.57l442.67-55.1v-99.55l265.32-33.03c32.81-4.08,62.61-15.77,89.29-35.09,26.67-19.32,48.22-43.35,64.62-72.09,16.41-28.69,24.61-59.44,24.61-92.3v-187.15c0-20.54-4.13-40.33-12.28-59.44Zm-431.56-129.35v-99.55l222.24-27.63c1.64-.21,3.28.16,4.92,1.22,1.64,1.06,2.43,2.75,2.43,5.24v85.42l74.68,65.36-304.27,37.84v99.55l-257.96,32.07c-2.49.32-4.34-.05-5.56-1.11-1.27-1.11-1.85-2.43-1.85-4.13v-86.59l-74.68-65.42,340.05-42.29Zm0,429.92v99.55l-257.96,32.07c-2.49.32-4.34-.05-5.56-1.16-1.27-1.06-1.85-2.81-1.85-5.29v-101.41l-74.68-65.42,340.05-42.29v-99.55l256.69-31.91c2.49-.32,4.34.32,5.56,1.75,1.22,1.53,1.85,3.07,1.85,4.71v100.72l75.37,66-339.47,42.23Z"/>
</svg>