<?xml version="1.0" encoding="UTF-8"?>
<svg id="Capa_1" data-name="Capa 1" xmlns="http://www.w3.org/2000/svg" viewBox="0 0 750.52 193.39">
  <defs>
    <style>
      .cls-1 {
        fill: #ff2a00;
      }
    </style>
  </defs>
  <path class="cls-1" d="m190.46,100.71c-1.79-4.38-4.12-8.45-6.97-12.21.71-1.97,1.25-3.98,1.6-6.04.36-2.06.54-4.25.54-6.57v-37.02c0-7.15-1.79-13.63-5.36-19.45-3.58-5.81-8.27-10.46-14.08-13.95-5.81-3.49-12.21-5.23-19.18-5.23H0v193.14h154.24c7.15,0,13.64-1.75,19.45-5.23,5.81-3.49,10.5-8.13,14.08-13.95,3.58-5.81,5.36-12.29,5.36-19.45v-40.77c0-4.47-.9-8.89-2.68-13.28Zm-45.6-61.56c.36,0,.71.13,1.07.4.36.27.54.67.54,1.21v18.61l16.26,16.26H40.24c-.54,0-.94-.13-1.21-.4-.27-.27-.4-.58-.4-.94v-18.87l-16.27-16.27h122.5Zm-104.62,115.35c-.54,0-.94-.14-1.21-.4-.27-.27-.4-.67-.4-1.21v-22.09l-16.27-16.28h130.01c.54,0,.94.18,1.21.54.27.36.4.71.4,1.07v21.94l16.42,16.42H40.24Z"/>
  <path class="cls-1" d="m362.06,56.85c-3.4-5.72-7.96-10.33-13.68-13.82-5.73-3.49-12.07-5.23-19.04-5.23h-119.91v38.09h118.03c.36,0,.71.18,1.07.54.36.36.53.71.53,1.07v18.78h-119.64v59.29c0,6.8,1.69,13.06,5.1,18.78,3.39,5.73,8,10.32,13.81,13.81,5.81,3.49,12.11,5.23,18.91,5.23h119.91v-117.76c0-6.79-1.7-13.05-5.1-18.78Zm-112.93,98.45c-.36,0-.72-.17-1.07-.54-.36-.36-.54-.71-.54-1.07v-7.09l-16.25-16.25h97.79v8.79l16.15,16.15h-96.09Z"/>
  <polygon class="cls-1" points="595.56 37.8 595.56 177.12 579.29 193.39 557.47 193.39 557.47 53.99 573.66 37.8 595.56 37.8"/>
  <polygon class="cls-1" points="750.52 49.61 690.7 115.59 750.52 181.58 750.52 193.39 711.09 193.39 657.17 134.91 633.57 134.91 650.01 151.35 650.01 193.39 611.92 193.39 612.86 0 650.95 0 650.17 79.68 633.57 96.28 657.17 96.28 711.09 37.8 750.52 37.8 750.52 49.61"/>
  <path class="cls-1" d="m503.45,82.16v-5.11c0-.36-.18-.71-.54-1.08-.36-.36-.72-.54-1.07-.54h-96.49l16.38,19.5c.08.2.23.38.46.54.36.27.72.4,1.08.4h80.45c7,0,13.36,1.75,19.11,5.25,5.74,3.5,10.36,8.12,13.86,13.86,3.5,5.74,5.25,12.11,5.25,19.11v21.26c0,6.82-1.75,13.09-5.25,18.83-3.5,5.74-8.12,10.36-13.86,13.86-5.74,3.5-12.11,5.25-19.11,5.25h-82.34c-6.82,0-13.09-1.75-18.83-5.25-5.74-3.5-10.36-8.11-13.86-13.86-3.5-5.74-5.25-12.01-5.25-18.83v-7h38.21v5.11c0,.36.17.72.54,1.08.36.36.72.53,1.08.53h96.44l-16.33-19.49h0c-.08-.21-.24-.39-.46-.56-.36-.27-.72-.4-1.07-.4h-80.46c-6.82,0-13.09-1.75-18.83-5.25-5.74-3.5-10.36-8.11-13.86-13.86-3.5-5.74-5.25-12.11-5.25-19.11v-21.26c0-6.81,1.75-13.09,5.25-18.83,3.5-5.74,8.11-10.36,13.86-13.86,5.74-3.5,12.01-5.25,18.83-5.25h82.34c7,0,13.36,1.75,19.11,5.25,5.74,3.5,10.36,8.12,13.86,13.86,3.5,5.74,5.25,12.02,5.25,18.83v7h-38.48Z"/>
</svg>