<?xml version="1.0" encoding="UTF-8"?>
<svg id="Layer_1" data-name="Layer 1" xmlns="http://www.w3.org/2000/svg" viewBox="0 0 360 144">
  <defs>
    <style>
      .cls-1 {
        opacity: .75;
      }

      .cls-2 {
        opacity: .5;
      }

      .cls-3 {
        fill: #009ace;
      }
    </style>
  </defs>
  <path class="cls-3" d="M320.99,57.26h6.64l.11,2.77c.61-.77,3.12-3.6,7.63-3.6,7.3,0,11.28,4.51,11.28,12.37v18.32h-6.89v-18.1c0-4.05-2.47-6.37-5.94-6.37s-5.93,2.32-5.93,6.37v18.1h-6.89v-29.86ZM262.81,87.11h-6.9v-43.4h6.9v43.4ZM277.55,87.11h-6.9v-29.86h6.9v29.86ZM274.09,43c-2.39,0-4.32,1.94-4.32,4.33s1.93,4.32,4.32,4.32,4.33-1.94,4.33-4.32-1.94-4.33-4.33-4.33M241.25,57.26h6.82v29.86h-6.82l-.11-3.13c-1.25,1.28-4.59,3.97-9.25,3.97-8.14,0-14.17-6.55-14.17-15.77,0-9.75,6.53-15.76,14.17-15.76,5.35,0,8.36,2.9,9.25,3.98l.11-3.14ZM224.77,72.18c0,5.73,3.51,9.55,8.39,9.55,4.43,0,8.41-3.22,8.41-9.55s-3.81-9.55-8.41-9.55c-5.08,0-8.39,4.05-8.39,9.55M306.64,72.18c0-6.23-3.93-9.55-8.39-9.55-5.34,0-8.41,4.34-8.41,9.55,0,5.5,3.31,9.55,8.41,9.55,4.69,0,8.39-3.49,8.39-9.55M313.14,84.16c0,12.81-7.5,17.06-16.32,17.06-5.88,0-9.43-1.78-10.68-2.36l1.71-5.93c.78.41,4,2.32,8.91,2.32s9.49-3.29,9.49-9.22v-2.06c-.56.58-3.48,4-9.33,4-8.04,0-14.12-6.47-14.12-15.77s5.72-15.76,14.15-15.76c5.75,0,8.66,3.26,9.27,3.98l.09-3.14h6.84v26.9Z"/>
  <path class="cls-3" d="M155.16,57.26l7.73,17.96,7.69-17.96h7.65l-15.41,31.91-15.28-31.91h7.62ZM193.79,80.25c1.68,1.05,4.97,2.24,7.72,2.24,3.35,0,4.96-1.44,4.96-3.42s-1.24-3.17-4.97-4.53c-5.9-1.99-8.24-5.08-8.24-8.68,0-5.34,4.2-9.44,11.23-9.44,3.36,0,6.28.8,8.07,1.79l-1.54,5.34c-1.27-.75-3.75-1.74-6.41-1.74s-4.36,1.36-4.36,3.23,1.44,2.92,5.29,4.35c5.53,1.93,7.93,4.68,7.99,9.15,0,5.52-4.08,9.4-12.1,9.4-3.66,0-6.96-.87-9.21-2.11l1.56-5.59ZM112.63,87.11h-6.9v-29.86h6.9v29.86ZM109.19,43c-2.4,0-4.33,1.94-4.33,4.33s1.93,4.32,4.33,4.32,4.32-1.94,4.32-4.32-1.93-4.33-4.32-4.33M187.6,87.11h-6.89v-29.86h6.89v29.86ZM184.16,43c-2.4,0-4.33,1.94-4.33,4.33s1.94,4.32,4.33,4.32,4.32-1.94,4.32-4.32-1.93-4.33-4.32-4.33M120.45,57.26h6.66l.11,2.77c.6-.77,2.98-3.6,7.71-3.6,6.67,0,11.19,4.51,11.19,12.38v18.32h-6.9v-18c0-3.83-2.48-6.47-5.93-6.47s-5.92,2.58-5.92,6.47v18h-6.91v-29.86Z"/>
  <path class="cls-3" d="M354.76,56.69c2.46,0,4.55,1.97,4.55,4.56s-2.09,4.55-4.55,4.55-4.56-1.95-4.56-4.55,2.07-4.56,4.56-4.56M354.76,65.13c2.08,0,3.74-1.68,3.74-3.89s-1.66-3.9-3.74-3.9-3.75,1.7-3.75,3.9,1.65,3.89,3.75,3.89M353.01,58.58h2.01c1.26,0,1.85.5,1.85,1.52,0,.96-.61,1.36-1.4,1.45l1.53,2.34h-.87l-1.44-2.28h-.88v2.28h-.81v-5.32ZM353.82,60.95h.84c.72,0,1.42-.04,1.42-.89,0-.74-.64-.82-1.19-.82h-1.07v1.71Z"/>
  <g>
    <path class="cls-3" d="M86.89,72.18c-4.92-2.77-9.67-4.45-13.82-5.23.3,1.7.46,3.45.46,5.23s-.16,3.54-.46,5.23c4.15-.79,8.9-2.46,13.82-5.23Z"/>
    <path class="cls-3" d="M68.17,55.11c2.38-3.49,4.55-8.03,6.08-13.48-5.44,1.52-9.99,3.7-13.48,6.07,2.88,2.01,5.39,4.52,7.4,7.4Z"/>
    <path class="cls-3" d="M38.46,42.8c1.7-.3,3.45-.46,5.23-.46s3.54.16,5.23.46c-.79-4.15-2.46-8.9-5.23-13.82-2.77,4.92-4.45,9.67-5.23,13.82Z"/>
    <path class="cls-3" d="M19.22,55.11c2.01-2.88,4.52-5.39,7.4-7.4-3.49-2.38-8.03-4.55-13.48-6.08,1.52,5.44,3.7,9.99,6.07,13.48Z"/>
    <path class="cls-3" d="M.49,72.18c4.92,2.77,9.67,4.45,13.82,5.23-.3-1.7-.46-3.45-.46-5.23s.16-3.54.46-5.23c-4.15.79-8.9,2.46-13.82,5.23Z"/>
    <path class="cls-3" d="M19.21,89.25c-2.38,3.49-4.55,8.03-6.08,13.48,5.44-1.52,9.99-3.7,13.48-6.07-2.88-2.01-5.39-4.52-7.4-7.4Z"/>
    <path class="cls-3" d="M38.45,101.56c.79,4.15,2.46,8.9,5.23,13.82,2.77-4.92,4.45-9.67,5.23-13.82-1.7.3-3.45.46-5.23.46s-3.54-.16-5.23-.46Z"/>
    <path class="cls-3" d="M60.76,96.66c3.49,2.38,8.03,4.55,13.48,6.08-1.52-5.44-3.7-9.99-6.07-13.48-2.01,2.88-4.52,5.39-7.4,7.4Z"/>
  </g>
  <g class="cls-1">
    <path class="cls-3" d="M73.07,66.95c-1.93-.37-3.74-.54-5.36-.54-1.96,0-3.83.23-5.58.64.45,1.63.7,3.35.7,5.13s-.24,3.5-.7,5.13c1.76.42,3.62.64,5.58.64,1.63,0,3.43-.17,5.36-.54.3-1.7.46-3.45.46-5.23s-.16-3.53-.46-5.23Z"/>
    <path class="cls-3" d="M60.35,62.78c1.54-.95,3.02-2.11,4.4-3.5,1.15-1.15,2.3-2.55,3.41-4.17-2.01-2.88-4.52-5.39-7.4-7.4-1.62,1.11-3.02,2.26-4.17,3.41-1.39,1.39-2.55,2.87-3.49,4.4,3.03,1.71,5.54,4.23,7.25,7.26Z"/>
    <path class="cls-3" d="M43.69,42.34c-1.78,0-3.53.16-5.23.46-.37,1.93-.54,3.74-.54,5.36,0,1.96.23,3.83.64,5.58,1.63-.45,3.35-.7,5.13-.7s3.5.24,5.13.7c.42-1.76.64-3.62.64-5.58,0-1.63-.17-3.43-.54-5.36-1.7-.3-3.45-.46-5.23-.46Z"/>
    <path class="cls-3" d="M26.62,47.71c-2.88,2.01-5.39,4.52-7.4,7.4,1.11,1.62,2.26,3.02,3.41,4.17,1.39,1.39,2.87,2.55,4.4,3.49,1.71-3.03,4.23-5.54,7.26-7.25-.95-1.54-2.11-3.02-3.5-4.4-1.15-1.15-2.55-2.3-4.17-3.41Z"/>
    <path class="cls-3" d="M25.25,77.31c-.45-1.63-.7-3.35-.7-5.13s.24-3.5.7-5.13c-1.76-.42-3.62-.64-5.58-.64-1.63,0-3.43.17-5.36.54-.3,1.7-.46,3.45-.46,5.23s.16,3.53.46,5.23c1.93.37,3.74.54,5.36.54,1.96,0,3.83-.23,5.58-.64Z"/>
    <path class="cls-3" d="M27.03,81.59c-1.54.95-3.02,2.11-4.4,3.5-1.15,1.15-2.3,2.55-3.41,4.17,2.01,2.88,4.52,5.39,7.4,7.4,1.62-1.11,3.02-2.26,4.17-3.41,1.39-1.39,2.55-2.87,3.49-4.4-3.03-1.71-5.54-4.23-7.25-7.26Z"/>
    <path class="cls-3" d="M43.69,91.31c-1.78,0-3.5-.24-5.13-.7-.42,1.76-.64,3.62-.64,5.58,0,1.63.17,3.43.54,5.36,1.7.3,3.45.46,5.23.46s3.53-.16,5.23-.46c.37-1.93.54-3.74.54-5.36,0-1.96-.23-3.83-.64-5.58-1.63.45-3.35.7-5.13.7Z"/>
    <path class="cls-3" d="M60.35,81.59c-1.71,3.03-4.23,5.54-7.26,7.25.95,1.54,2.11,3.02,3.5,4.4,1.15,1.15,2.55,2.3,4.17,3.41,2.88-2.01,5.39-4.52,7.4-7.4-1.11-1.62-2.26-3.02-3.41-4.17-1.39-1.39-2.87-2.55-4.4-3.49Z"/>
  </g>
  <g class="cls-2">
    <path class="cls-3" d="M62.12,67.05c-3.87.92-7.2,2.75-9.81,5.13,2.61,2.38,5.94,4.21,9.81,5.13.45-1.63.7-3.35.7-5.13s-.24-3.5-.7-5.13Z"/>
    <path class="cls-3" d="M53.1,55.52c-2.09,3.38-3.14,7.03-3.31,10.56,3.53-.17,7.18-1.22,10.56-3.31-1.71-3.03-4.23-5.54-7.25-7.26Z"/>
    <path class="cls-3" d="M38.56,53.75c.92,3.87,2.75,7.2,5.13,9.81,2.38-2.61,4.21-5.94,5.13-9.81-1.63-.45-3.35-.7-5.13-.7s-3.5.24-5.13.7Z"/>
    <path class="cls-3" d="M27.03,62.77c3.38,2.09,7.03,3.14,10.56,3.31-.17-3.53-1.22-7.18-3.31-10.56-3.03,1.71-5.54,4.23-7.26,7.25Z"/>
    <path class="cls-3" d="M25.26,67.05c-.45,1.63-.7,3.35-.7,5.13s.24,3.5.7,5.13c3.87-.92,7.2-2.75,9.81-5.13-2.61-2.38-5.94-4.21-9.81-5.13Z"/>
    <path class="cls-3" d="M34.28,88.84c2.09-3.38,3.14-7.03,3.31-10.56-3.53.17-7.18,1.22-10.56,3.31,1.71,3.03,4.23,5.54,7.25,7.26Z"/>
    <path class="cls-3" d="M38.56,90.61c1.63.45,3.35.7,5.13.7s3.5-.24,5.13-.7c-.92-3.87-2.75-7.2-5.13-9.81-2.38,2.61-4.21,5.94-5.13,9.81Z"/>
    <path class="cls-3" d="M53.09,88.84c3.03-1.71,5.54-4.23,7.26-7.25-3.38-2.09-7.03-3.14-10.56-3.31.17,3.53,1.22,7.18,3.31,10.56Z"/>
  </g>
</svg>